<svg width="20" height="20" viewBox="0 0 20 20" fill="none" xmlns="http://www.w3.org/2000/svg">
<defs>
<symbol id='search'>
<path fill-rule="evenodd" clip-rule="evenodd" d="M0.5 8.5C0.5 4.08172 4.08172 0.5 8.5 0.5C12.9183 0.5 16.5 4.08172 16.5 8.5C16.5 12.9183 12.9183 16.5 8.5 16.5C4.08172 16.5 0.5 12.9183 0.5 8.5ZM8.5 1.5C4.63401 1.5 1.5 4.63401 1.5 8.5C1.5 12.366 4.63401 15.5 8.5 15.5C12.366 15.5 15.5 12.366 15.5 8.5C15.5 4.63401 12.366 1.5 8.5 1.5Z" fill="#414141"/>
<path fill-rule="evenodd" clip-rule="evenodd" d="M13.4472 13.4464C13.6425 13.2512 13.9591 13.2512 14.1543 13.4464L19.3543 18.6464C19.5496 18.8417 19.5496 19.1583 19.3543 19.3536C19.1591 19.5488 18.8425 19.5488 18.6472 19.3536L13.4472 14.1536C13.252 13.9583 13.252 13.6417 13.4472 13.4464Z" fill="#414141"/>
</symbol>
</defs>
</svg>
